# Blender v2.79 (sub 0) OBJ File: 'Syndicate.blend'
# www.blender.org
mtllib Syndicate.mtl
o Cube.001_Cube.002
v 0.368619 0.278043 0.024182
v 0.368619 0.278043 -0.368619
v 0.368619 -0.368619 0.024182
v 0.368619 0.701906 0.024182
v 0.368619 -0.368619 -0.368619
v 0.368619 0.701906 -0.368619
v 0.770611 0.278043 -0.368619
v 0.770611 0.278043 0.024182
v 0.770611 0.701906 -0.368619
v 0.770611 0.701906 0.024182
v 0.123184 0.701906 -0.296947
v 0.123184 0.701906 -0.047490
v 0.123184 0.597316 -0.296947
v 0.123184 0.597316 -0.047490
v 0.334742 -0.368619 -0.011918
v 0.334742 -0.368619 -0.332519
v 0.334742 -0.289245 -0.011918
v 0.334742 -0.289245 -0.332519
v 0.770611 0.327486 -0.322799
v 0.770611 0.327486 -0.021638
v 0.770611 0.652462 -0.322799
v 0.770611 0.652462 -0.021638
v 0.639688 0.327486 -0.322799
v 0.639688 0.327486 -0.021638
v 0.639688 0.652462 -0.322799
v 0.639688 0.652462 -0.021638
v 0.000000 0.278043 -0.368619
v 0.000000 0.278043 0.024182
v -0.368619 0.278043 0.024182
v -0.368619 0.278043 -0.368619
v -0.368619 -0.368619 0.024182
v -0.368619 0.701906 0.024182
v -0.368619 -0.368619 -0.368619
v -0.368619 0.701906 -0.368619
v 0.000000 -0.368619 -0.368619
v 0.000000 0.701906 -0.368619
v 0.000000 -0.368619 0.024182
v 0.000000 0.701906 0.024182
v -0.770611 0.278043 -0.368619
v -0.770611 0.278043 0.024182
v -0.770611 0.701906 -0.368619
v -0.770611 0.701906 0.024182
v 0.000000 0.701906 -0.296947
v -0.123184 0.701906 -0.296947
v -0.123184 0.701906 -0.047490
v 0.000000 0.701906 -0.047490
v 0.000000 0.597316 -0.296947
v -0.123184 0.597316 -0.296947
v -0.123184 0.597316 -0.047490
v 0.000000 0.597316 -0.047490
v -0.334742 -0.368619 -0.011918
v -0.334742 -0.368619 -0.332519
v 0.000000 -0.368619 -0.011918
v 0.000000 -0.368619 -0.332519
v -0.334742 -0.289245 -0.011918
v -0.334742 -0.289245 -0.332519
v 0.000000 -0.289245 -0.011918
v 0.000000 -0.289245 -0.332519
v -0.770611 0.327486 -0.322799
v -0.770611 0.327486 -0.021638
v -0.770611 0.652462 -0.322799
v -0.770611 0.652462 -0.021638
v -0.639688 0.327486 -0.322799
v -0.639688 0.327486 -0.021638
v -0.639688 0.652462 -0.322799
v -0.639688 0.652462 -0.021638
vn 0.0000 0.0000 -1.0000
vn 0.0000 1.0000 0.0000
vn 0.0000 -1.0000 0.0000
vn 1.0000 0.0000 0.0000
vn 0.0000 0.0000 1.0000
vn -1.0000 0.0000 0.0000
usemtl None
s off
f 27//1 36//1 6//1 2//1
f 6//2 4//2 10//2 9//2
f 5//3 3//3 15//3 16//3
f 35//1 27//1 2//1 5//1
f 6//2 36//2 43//2 11//2
f 5//4 2//4 1//4 3//4
f 1//5 4//5 38//5 28//5
f 3//5 1//5 28//5 37//5
f 10//4 8//4 20//4 22//4
f 1//3 2//3 7//3 8//3
f 4//5 1//5 8//5 10//5
f 2//1 6//1 9//1 7//1
f 46//1 12//1 14//1 50//1
f 4//2 6//2 11//2 12//2
f 38//2 4//2 12//2 46//2
f 13//2 47//2 50//2 14//2
f 11//5 43//5 47//5 13//5
f 12//6 11//6 13//6 14//6
f 54//5 16//5 18//5 58//5
f 35//3 5//3 16//3 54//3
f 3//3 37//3 53//3 15//3
f 58//3 18//3 17//3 57//3
f 15//1 53//1 57//1 17//1
f 16//6 15//6 17//6 18//6
f 19//5 21//5 25//5 23//5
f 8//4 7//4 19//4 20//4
f 7//4 9//4 21//4 19//4
f 9//4 10//4 22//4 21//4
f 23//4 25//4 26//4 24//4
f 21//3 22//3 26//3 25//3
f 22//1 20//1 24//1 26//1
f 20//2 19//2 23//2 24//2
f 27//1 30//1 34//1 36//1
f 34//2 41//2 42//2 32//2
f 33//3 52//3 51//3 31//3
f 35//1 33//1 30//1 27//1
f 34//2 44//2 43//2 36//2
f 33//6 31//6 29//6 30//6
f 29//5 28//5 38//5 32//5
f 31//5 37//5 28//5 29//5
f 42//6 62//6 60//6 40//6
f 29//3 40//3 39//3 30//3
f 32//5 42//5 40//5 29//5
f 30//1 39//1 41//1 34//1
f 46//1 50//1 49//1 45//1
f 32//2 45//2 44//2 34//2
f 38//2 46//2 45//2 32//2
f 48//2 49//2 50//2 47//2
f 44//5 48//5 47//5 43//5
f 45//4 49//4 48//4 44//4
f 54//5 58//5 56//5 52//5
f 35//3 54//3 52//3 33//3
f 31//3 51//3 53//3 37//3
f 58//3 57//3 55//3 56//3
f 51//1 55//1 57//1 53//1
f 52//4 56//4 55//4 51//4
f 59//5 63//5 65//5 61//5
f 40//6 60//6 59//6 39//6
f 39//6 59//6 61//6 41//6
f 41//6 61//6 62//6 42//6
f 63//6 64//6 66//6 65//6
f 61//3 65//3 66//3 62//3
f 62//1 66//1 64//1 60//1
f 60//2 64//2 63//2 59//2
o Cube_Cube.001
v -3.059070 -4.131889 2.617757
v -3.059070 -3.820766 2.617757
v -3.059070 -4.131889 -3.500383
v -3.059070 -3.820766 -3.500383
v 3.059070 -4.131889 2.617757
v 3.059070 -3.820766 2.617757
v 3.059070 -4.131889 -3.500383
v 3.059070 -3.820766 -3.500383
vn -1.0000 0.0000 0.0000
vn 0.0000 0.0000 -1.0000
vn 1.0000 0.0000 0.0000
vn 0.0000 0.0000 1.0000
vn 0.0000 -1.0000 0.0000
vn 0.0000 1.0000 0.0000
usemtl None
s off
f 67//7 68//7 70//7 69//7
f 69//8 70//8 74//8 73//8
f 73//9 74//9 72//9 71//9
f 71//10 72//10 68//10 67//10
f 69//11 73//11 71//11 67//11
f 74//12 70//12 68//12 72//12
o Plane
v 9.683155 9.469515 9.978866
v 9.659845 9.109509 10.325064
v 9.300348 9.705001 10.197968
v 9.277039 9.344995 10.544166
vn -0.6416 -0.5097 -0.5732
usemtl Material
s off
f 75//13 76//13 78//13 77//13
